<?xml version="1.0" encoding="UTF-8" standalone="no"?>
<svg
   xmlns:dc="http://purl.org/dc/elements/1.1/"
   xmlns:cc="http://creativecommons.org/ns#"
   xmlns:rdf="http://www.w3.org/1999/02/22-rdf-syntax-ns#"
   xmlns:svg="http://www.w3.org/2000/svg"
   xmlns="http://www.w3.org/2000/svg"
   xmlns:sodipodi="http://sodipodi.sourceforge.net/DTD/sodipodi-0.dtd"
   xmlns:inkscape="http://www.inkscape.org/namespaces/inkscape"
   version="1.0"
   width="1280.000000pt"
   height="737.000000pt"
   viewBox="0 0 1280.000000 737.000000"
   preserveAspectRatio="xMidYMid meet"
   id="svg2"
   inkscape:version="0.91 r13725"
   sodipodi:docname="logo.svg">
  <defs
     id="defs38" />
  <sodipodi:namedview
     pagecolor="#ffffff"
     bordercolor="#666666"
     borderopacity="1"
     objecttolerance="10"
     gridtolerance="10"
     guidetolerance="10"
     inkscape:pageopacity="0"
     inkscape:pageshadow="2"
     inkscape:window-width="1855"
     inkscape:window-height="1056"
     id="namedview36"
     showgrid="false"
     inkscape:zoom="0.195625"
     inkscape:cx="800"
     inkscape:cy="460.625"
     inkscape:window-x="65"
     inkscape:window-y="24"
     inkscape:window-maximized="1"
     inkscape:current-layer="svg2" />
  <metadata
     id="metadata4">
Created by potrace 1.15, written by Peter Selinger 2001-2017
<rdf:RDF>
  <cc:Work
     rdf:about="">
    <dc:format>image/svg+xml</dc:format>
    <dc:type
       rdf:resource="http://purl.org/dc/dcmitype/StillImage" />
  </cc:Work>
</rdf:RDF>
</metadata>
  <g
     transform="matrix(0.11545688,0,0,-0.13573101,-116.34153,832.40606)"
     id="g6"
     style="fill:#000000;stroke:none">
    <path
       d="m 5180,4305 0,-1845 175,0 175,0 0,1845 0,1845 -175,0 -175,0 0,-1845 z"
       id="path8"
       inkscape:connector-curvature="0" />
    <path
       d="m 1022,3313 3,-2008 868,-3 867,-2 -2,177 -3,178 -692,3 -693,2 0,1655 0,1655 1735,0 1735,0 0,175 0,175 -1910,0 -1910,0 2,-2007 z"
       id="path10"
       inkscape:connector-curvature="0" />
    <path
       d="m 5870,5145 0,-175 2770,0 2770,0 0,-1655 0,-1655 -3807,-2 -3808,-3 -3,-173 -2,-172 3985,0 3985,0 0,2005 0,2005 -2945,0 -2945,0 0,-175 z"
       id="path12"
       inkscape:connector-curvature="0" />
    <path
       d="m 3107,4304 c -4,-4 -7,-837 -7,-1851 l 0,-1843 175,0 175,0 -2,1847 -3,1848 -166,3 c -91,1 -168,-1 -172,-4 z"
       id="path14"
       inkscape:connector-curvature="0" />
    <path
       d="m 3797,4304 c -4,-4 -7,-420 -7,-925 l 0,-918 159,-3 c 87,-2 166,-2 175,0 15,3 16,77 14,925 l -3,922 -166,3 c -91,1 -168,-1 -172,-4 z"
       id="path16"
       inkscape:connector-curvature="0" />
    <path
       d="m 5877,4304 c -4,-4 -7,-421 -7,-926 l 0,-918 175,0 175,0 -2,923 -3,922 -166,3 c -91,1 -168,-1 -172,-4 z"
       id="path18"
       inkscape:connector-curvature="0" />
    <path
       d="m 6592,4302 -32,-3 2,-922 3,-922 175,0 175,0 0,923 0,923 -145,2 c -80,1 -160,1 -178,-1 z"
       id="path20"
       inkscape:connector-curvature="0" />
    <path
       d="m 7273,4304 c -10,-5 -13,-199 -13,-925 l 0,-919 175,0 175,0 -2,923 -3,922 -160,2 c -88,1 -166,-1 -172,-3 z"
       id="path22"
       inkscape:connector-curvature="0" />
    <path
       d="m 7966,4302 c -15,-3 -16,-77 -14,-925 l 3,-922 173,-3 172,-2 0,924 0,925 -159,3 c -87,2 -166,2 -175,0 z"
       id="path24"
       inkscape:connector-curvature="0" />
    <path
       d="m 8647,4303 c -4,-3 -7,-420 -7,-925 l 0,-918 175,0 175,0 0,925 0,925 -168,0 c -93,0 -172,-3 -175,-7 z"
       id="path26"
       inkscape:connector-curvature="0" />
    <path
       d="m 9336,4295 c -3,-8 -6,-425 -6,-925 l 0,-910 175,2 175,3 0,903 c 0,496 0,911 0,922 0,19 -7,20 -169,20 -141,0 -170,-2 -175,-15 z"
       id="path28"
       inkscape:connector-curvature="0" />
    <path
       d="m 10030,3385 0,-925 175,0 175,0 -2,923 -3,922 -172,3 -173,2 0,-925 z"
       id="path30"
       inkscape:connector-curvature="0" />
    <path
       d="m 2410,3375 0,-925 173,2 172,3 3,923 2,922 -175,0 -175,0 0,-925 z"
       id="path32"
       inkscape:connector-curvature="0" />
    <path
       d="m 4490,3375 0,-925 173,2 172,3 3,923 2,922 -175,0 -175,0 0,-925 z"
       id="path34"
       inkscape:connector-curvature="0" />
  </g>
</svg>
