<?xml version="1.0" encoding="UTF-8" standalone="no"?>
<svg
   xmlns:dc="http://purl.org/dc/elements/1.1/"
   xmlns:cc="http://creativecommons.org/ns#"
   xmlns:rdf="http://www.w3.org/1999/02/22-rdf-syntax-ns#"
   xmlns:svg="http://www.w3.org/2000/svg"
   xmlns="http://www.w3.org/2000/svg"
   xmlns:xlink="http://www.w3.org/1999/xlink"
   xmlns:sodipodi="http://sodipodi.sourceforge.net/DTD/sodipodi-0.dtd"
   xmlns:inkscape="http://www.inkscape.org/namespaces/inkscape"
   version="1.0"
   width="1280.000000pt"
   height="623.000000pt"
   viewBox="0 0 1280.000000 623.000000"
   preserveAspectRatio="xMidYMid meet"
   id="svg2"
   inkscape:version="0.91 r13725"
   sodipodi:docname="yutmanrecords2.svg">
  <defs
     id="defs86">
    <linearGradient
       inkscape:collect="always"
       id="linearGradient5681">
      <stop
         style="stop-color:#000000;stop-opacity:1;"
         offset="0"
         id="stop5683" />
      <stop
         style="stop-color:#000000;stop-opacity:0;"
         offset="1"
         id="stop5685" />
    </linearGradient>
    <linearGradient
       inkscape:collect="always"
       xlink:href="#linearGradient5681"
       id="linearGradient5693"
       x1="651.78186"
       y1="542.01996"
       x2="675.56799"
       y2="542.01996"
       gradientUnits="userSpaceOnUse" />
  </defs>
  <sodipodi:namedview
     pagecolor="#ffffff"
     bordercolor="#666666"
     borderopacity="1"
     objecttolerance="10"
     gridtolerance="10"
     guidetolerance="10"
     inkscape:pageopacity="0"
     inkscape:pageshadow="2"
     inkscape:window-width="1863"
     inkscape:window-height="1059"
     id="namedview84"
     showgrid="false"
     inkscape:zoom="0.74"
     inkscape:cx="496.3433"
     inkscape:cy="483.57268"
     inkscape:window-x="57"
     inkscape:window-y="21"
     inkscape:window-maximized="1"
     inkscape:current-layer="svg2" />
  <metadata
     id="metadata4">
Created by potrace 1.15, written by Peter Selinger 2001-2017
<rdf:RDF>
  <cc:Work
     rdf:about="">
    <dc:format>image/svg+xml</dc:format>
    <dc:type
       rdf:resource="http://purl.org/dc/dcmitype/StillImage" />
    <dc:title></dc:title>
  </cc:Work>
</rdf:RDF>
</metadata>
  <g
     transform="translate(0.000000,623.000000) scale(0.100000,-0.100000)"
     fill="#000000"
     stroke="none"
     id="g6"
     style="fill:#ffffff;fill-opacity:1">
    <path
       d="M5712 4598 l3 -853 83 -3 82 -3 0 856 0 855 -85 0 -85 0 2 -852z"
       id="path8"
       style="fill:#ffffff;fill-opacity:1" />
    <path
       d="M3790 4140 l0 -930 405 0 405 0 0 80 0 80 -320 0 -320 0 0 770 0 769 793 1 c435 0 795 0 800 0 4 0 7 36 7 80 l0 80 -885 0 -885 0 0 -930z"
       id="path10"
       style="fill:#ffffff;fill-opacity:1" />
    <path
       d="M6040 4990 l0 -80 1280 0 1280 0 0 -765 c0 -605 -3 -765 -12 -765 -7 0 -800 -1 -1763 -2 l-1750 -3 0 -80 0 -80 1843 -3 1842 -2 0 930 0 930 -1360 0 -1360 0 0 -80z"
       id="path12"
       style="fill:#ffffff;fill-opacity:1" />
    <path
       d="M4430 4170 l0 -430 85 0 85 0 0 430 0 430 -85 0 -85 0 0 -430z"
       id="path14"
       style="fill:#ffffff;fill-opacity:1" />
    <path
       d="M4750 3745 l0 -855 85 0 85 0 0 855 0 855 -85 0 -85 0 0 -855z"
       id="path16"
       style="fill:#ffffff;fill-opacity:1" />
    <path
       d="M5072 4173 l3 -428 83 -3 82 -3 0 431 0 430 -85 0 -85 0 2 -427z"
       id="path18"
       style="fill:#ffffff;fill-opacity:1" />
    <path
       d="M5395 4587 c-3 -6 -4 -199 -3 -427 l3 -415 83 -3 82 -3 0 431 0 430 -80 0 c-55 0 -82 -4 -85 -13z"
       id="path20"
       style="fill:#ffffff;fill-opacity:1" />
    <path
       d="M6040 4170 l0 -430 80 0 80 0 0 430 0 430 -80 0 -80 0 0 -430z"
       id="path22"
       style="fill:#ffffff;fill-opacity:1" />
    <path
       d="M6355 4587 c-3 -6 -4 -199 -3 -427 l3 -415 83 -3 82 -3 0 431 0 430 -80 0 c-55 0 -82 -4 -85 -13z"
       id="path24"
       style="fill:#ffffff;fill-opacity:1" />
    <path
       d="M6680 4170 l0 -430 80 0 80 0 0 430 0 430 -80 0 -80 0 0 -430z"
       id="path26"
       style="fill:#ffffff;fill-opacity:1" />
    <path
       d="M7000 4170 l0 -430 80 0 80 0 0 430 0 430 -80 0 -80 0 0 -430z"
       id="path28"
       style="fill:#ffffff;fill-opacity:1" />
    <path
       d="M7320 4170 l0 -430 80 0 80 0 0 430 0 430 -80 0 -80 0 0 -430z"
       id="path30"
       style="fill:#ffffff;fill-opacity:1" />
    <path
       d="M7640 4170 l0 -430 80 0 80 0 0 430 0 430 -80 0 -80 0 0 -430z"
       id="path32"
       style="fill:#ffffff;fill-opacity:1" />
    <path
       d="M7960 4170 l0 -430 80 0 80 0 0 430 0 430 -80 0 -80 0 0 -430z"
       id="path34"
       style="fill:#ffffff;fill-opacity:1" />
    <path
       d="M4394 2198 c-4 -13 -85 -221 -182 -463 -96 -242 -177 -448 -179 -457 -5 -16 3 -18 69 -18 l74 0 53 133 c30 72 59 135 64 139 6 4 83 6 171 5 l160 -2 55 -137 56 -138 73 0 c39 0 72 4 72 8 0 4 -71 188 -158 408 -88 219 -172 432 -187 472 l-28 72 -53 0 c-46 0 -54 -3 -60 -22z m120 -371 l55 -157 -114 0 -114 0 46 128 c25 70 50 142 56 159 6 18 12 32 13 30 2 -2 28 -74 58 -160z"
       id="path36"
       style="fill:#ffffff;fill-opacity:1" />
    <path
       d="M8875 2214 c-16 -3 -57 -14 -91 -26 -181 -62 -309 -231 -321 -424 -7 -100 7 -166 56 -259 48 -93 121 -164 217 -212 78 -38 78 -38 203 -38 124 0 127 0 201 36 93 45 152 96 202 173 60 93 82 177 76 296 -4 87 -9 107 -41 174 -59 124 -157 213 -282 256 -60 20 -165 32 -220 24z m212 -175 c77 -37 144 -109 173 -187 31 -81 25 -196 -14 -275 -57 -117 -173 -187 -310 -187 -64 0 -82 5 -144 36 -79 39 -127 89 -164 170 -34 74 -33 199 3 275 86 182 279 253 456 168z"
       id="path38"
       style="fill:#ffffff;fill-opacity:1" />
    <path
       d="M2393 2204 c-9 -4 -13 -29 -13 -75 l0 -69 145 0 145 0 0 -405 0 -406 68 3 67 3 3 403 2 402 141 0 140 0 -3 73 -3 72 -340 2 c-187 1 -346 -1 -352 -3z"
       id="path40"
       style="fill:#ffffff;fill-opacity:1" />
    <path
       d="M3163 2203 c-10 -4 -13 -107 -13 -474 l0 -469 70 0 70 0 2 328 3 327 119 -177 120 -178 43 0 43 0 117 176 118 177 3 -327 2 -326 70 0 70 0 0 470 c0 259 -3 470 -7 471 -5 0 -29 3 -55 5 l-47 4 -156 -231 c-86 -127 -158 -229 -159 -227 -2 2 -71 103 -155 226 -84 122 -158 223 -164 223 -47 5 -84 5 -94 2z"
       id="path42"
       style="fill:#ffffff;fill-opacity:1" />
    <path
       d="M4900 1735 l0 -475 70 0 70 0 2 322 3 322 96 -140 c111 -161 187 -271 280 -404 l66 -95 57 -3 56 -3 -2 472 -3 473 -45 3 c-25 2 -55 1 -67 -2 l-23 -5 -2 -322 -3 -322 -189 274 c-285 413 -258 380 -316 380 l-50 0 0 -475z"
       id="path44"
       style="fill:#ffffff;fill-opacity:1" />
    <path
       d="M6183 2203 c-10 -4 -13 -107 -13 -474 l0 -469 70 0 70 0 0 400 0 400 133 0 c114 0 136 -3 165 -20 47 -29 72 -76 72 -135 0 -67 -26 -114 -80 -142 -37 -20 -58 -23 -147 -23 l-103 0 0 -32 c0 -28 25 -62 151 -213 83 -99 160 -192 171 -207 19 -27 23 -28 109 -28 75 0 89 2 82 14 -4 8 -65 82 -136 165 -135 159 -150 181 -123 181 32 0 114 50 149 91 45 52 67 116 67 194 0 163 -99 274 -266 295 -75 10 -345 12 -371 3z"
       id="path46"
       style="fill:#ffffff;fill-opacity:1" />
    <path
       d="M7865 2196 c-313 -78 -456 -456 -277 -732 162 -249 505 -285 706 -75 52 56 110 156 118 206 3 18 -3 20 -64 23 l-66 3 -12 -35 c-6 -20 -32 -58 -57 -86 -143 -159 -387 -143 -508 34 -118 174 -57 410 131 506 42 21 63 25 139 25 79 0 97 -4 142 -27 63 -34 114 -84 138 -138 l18 -40 69 0 c80 0 79 -3 28 105 -87 181 -305 281 -505 231z"
       id="path48"
       style="fill:#ffffff;fill-opacity:1" />
    <path
       d="M9518 2204 c-5 -4 -8 -218 -8 -476 l0 -468 70 0 70 0 0 400 0 400 133 0 c126 0 134 -1 171 -26 96 -65 86 -223 -17 -273 -35 -17 -62 -21 -146 -21 l-102 0 3 -35 c2 -29 34 -72 173 -240 l170 -205 88 0 c68 0 86 3 81 13 -4 6 -68 83 -141 169 -73 87 -133 162 -133 168 0 5 7 10 15 10 32 0 114 50 148 91 98 113 89 297 -18 405 -75 76 -110 85 -350 91 -110 3 -203 2 -207 -3z"
       id="path50"
       style="fill:#ffffff;fill-opacity:1" />
    <path
       d="M11299 2195 c-91 -29 -178 -109 -199 -184 -25 -92 -6 -184 52 -247 51 -55 112 -78 264 -99 179 -25 215 -46 216 -124 0 -47 -13 -74 -55 -104 -72 -54 -178 -63 -264 -23 -54 25 -77 51 -89 100 -6 26 -9 28 -43 22 -20 -3 -51 -6 -70 -6 -33 0 -33 0 -26 -37 32 -174 241 -281 445 -229 154 40 245 142 244 276 -2 158 -96 230 -347 265 -116 16 -158 32 -183 70 -21 32 -14 107 12 136 83 92 287 82 340 -16 18 -35 19 -35 86 -35 80 0 83 6 42 88 -53 107 -156 162 -297 161 -45 0 -103 -7 -128 -14z"
       id="path52"
       style="fill:#ffffff;fill-opacity:1" />
    <path
       d="M794 2175 c9 -14 88 -140 176 -280 l160 -255 0 -190 0 -190 70 0 70 0 0 193 0 192 175 278 174 277 -83 0 -84 0 -123 -200 c-68 -110 -127 -200 -130 -200 -3 0 -62 90 -130 200 l-124 200 -84 0 -83 0 16 -25z"
       id="path54"
       style="fill:#ffffff;fill-opacity:1" />
    <path
       d="M1640 1837 l0 -363 26 -53 c114 -229 532 -224 646 7 23 46 23 53 26 410 l3 362 -70 0 -71 0 0 -327 c0 -185 -4 -343 -10 -364 -35 -124 -254 -162 -368 -63 l-37 32 -3 361 -3 361 -69 0 -70 0 0 -363z"
       id="path56"
       style="fill:#ffffff;fill-opacity:1" />
    <path
       d="M6890 1730 l0 -470 290 0 291 0 -3 68 -3 67 -217 3 -218 2 0 130 0 130 213 2 212 3 3 68 3 67 -216 0 -215 0 0 130 0 130 218 2 217 3 3 68 3 67 -291 0 -290 0 0 -470z"
       id="path58"
       style="fill:#ffffff;fill-opacity:1" />
    <path
       d="M10220 1730 l0 -470 208 0 c227 0 291 10 371 57 144 84 223 228 224 408 0 50 -6 110 -12 134 -33 116 -111 227 -198 277 -93 55 -146 64 -379 64 l-214 0 0 -470z m496 298 c62 -33 109 -84 143 -158 21 -45 25 -70 25 -140 0 -70 -4 -95 -25 -140 -34 -73 -76 -120 -141 -156 -51 -28 -58 -29 -205 -32 l-153 -4 0 332 0 332 153 -4 c142 -3 155 -5 203 -30z"
       id="path60"
       style="fill:#ffffff;fill-opacity:1" />
    <path
       d="M4633 963 c-10 -3 -13 -46 -13 -164 l0 -159 100 0 100 0 0 25 c0 24 -2 25 -76 25 l-75 0 3 43 3 42 73 3 c69 3 72 4 72 27 0 24 -2 25 -75 25 l-75 0 0 40 0 39 72 3 c62 3 73 6 76 22 2 10 -2 22 -10 27 -14 9 -154 11 -175 2z"
       id="path62"
       style="fill:#ffffff;fill-opacity:1" />
    <path
       d="M4904 956 c-63 -28 -83 -94 -41 -140 16 -19 40 -29 86 -38 77 -16 97 -37 64 -70 -30 -29 -90 -29 -114 0 -19 24 -59 30 -59 8 0 -26 41 -66 79 -76 35 -9 63 -5 114 15 21 9 47 55 47 85 0 37 -51 77 -106 85 -62 10 -84 21 -84 45 0 23 36 50 66 50 12 0 33 -9 47 -20 30 -24 72 -27 63 -5 -4 12 4 15 44 15 l50 0 0 -139 0 -138 25 5 25 4 0 134 0 134 38 0 c46 0 65 12 60 36 -3 17 -15 19 -121 22 -112 2 -119 2 -124 -18 -6 -24 -11 -25 -34 -4 -24 22 -88 27 -125 10z"
       id="path64"
       style="fill:#ffffff;fill-opacity:1" />
    <path
       d="M5555 961 c-27 -11 -51 -40 -64 -74 -10 -25 -9 -27 13 -27 14 0 30 10 40 25 36 55 120 35 114 -28 -2 -25 -19 -45 -88 -104 -47 -40 -86 -82 -88 -93 -3 -19 2 -20 113 -20 115 0 116 0 113 22 -3 21 -8 22 -65 21 -35 -1 -63 2 -63 6 0 4 27 30 60 56 73 59 92 102 66 156 -9 19 -25 40 -36 46 -26 17 -91 25 -115 14z"
       id="path66"
       style="fill:#ffffff;fill-opacity:1" />
    <path
       d="M6008 910 l-42 -61 -18 34 c-46 90 -156 89 -203 -3 -20 -38 -19 -133 1 -173 24 -48 53 -67 102 -67 35 0 49 6 72 28 29 29 50 86 50 134 0 20 4 26 15 22 9 -4 23 4 35 17 l19 24 1 -112 0 -113 25 0 25 0 0 165 c0 157 -1 165 -20 165 -12 0 -34 -21 -62 -60z m-107 -42 c29 -48 22 -133 -14 -163 -47 -41 -103 -9 -107 60 -4 60 0 83 21 109 30 38 73 36 100 -6z"
       id="path68"
       style="fill:#ffffff;fill-opacity:1" />
    <path
       d="M6110 945 c0 -25 1 -25 80 -25 44 0 80 -2 80 -5 0 -3 -31 -63 -70 -134 -38 -70 -70 -131 -70 -135 0 -4 12 -6 27 -4 23 3 37 23 104 143 43 77 78 147 78 156 1 24 -19 29 -130 29 -99 0 -99 0 -99 -25z"
       id="path70"
       style="fill:#ffffff;fill-opacity:1" />
    <path
       d="M6793 963 c-10 -3 -13 -46 -13 -164 l0 -159 100 0 100 0 0 25 c0 24 -2 25 -76 25 l-75 0 3 43 3 42 73 3 c69 3 72 4 72 27 0 24 -2 25 -75 25 l-75 0 0 40 0 40 68 1 c37 1 70 1 75 0 14 -2 7 47 -9 53 -19 7 -153 7 -171 -1z"
       id="path74"
       style="fill:#ffffff;fill-opacity:1" />
    <path
       d="M7007 963 c-4 -3 -7 -78 -7 -165 l0 -158 25 0 25 0 0 135 0 135 55 0 c43 0 56 -4 65 -19 24 -46 7 -69 -60 -84 l-53 -12 62 -78 61 -77 226 0 225 0 -3 23 c-2 16 -11 23 -30 25 l-28 3 0 115 0 114 30 0 c23 0 30 4 30 20 0 23 -38 32 -120 27 -47 -3 -55 -7 -58 -25 -3 -17 3 -21 29 -24 l32 -3 -2 -110 c-1 -60 -3 -110 -4 -111 -5 -5 -67 -7 -139 -6 l-77 2 -3 138 c-3 129 -4 137 -23 137 -19 0 -20 -8 -23 -158 l-3 -157 -31 37 c-67 79 -63 71 -35 82 29 11 57 57 57 93 0 41 -36 86 -77 97 -42 12 -136 15 -146 4z"
       id="path76"
       style="fill:#ffffff;fill-opacity:1" />
    <path
       d="M7650 806 l0 -166 25 0 c24 0 24 1 27 105 l3 104 70 -104 c54 -81 75 -104 93 -105 l22 0 -2 163 c-3 154 -4 162 -23 162 -18 0 -20 -8 -25 -109 l-5 -108 -75 108 c-107 155 -110 154 -110 -50z"
       id="path78"
       style="fill:#ffffff;fill-opacity:1" />
    <path
       d="M1750 805 l0 -35 1375 0 1375 0 0 35 0 35 -1375 0 -1375 0 0 -35z"
       id="path80"
       style="fill:#ffffff;fill-opacity:1" />
    <path
       d="M8057 833 c-2 -5 -3 -19 -3 -33 l1 -25 1378 -3 1378 -2 -3 32 -3 33 -1372 3 c-754 1 -1374 -1 -1376 -5z"
       id="path82"
       style="fill:#ffffff;fill-opacity:1" />
  </g>
  <text
     xml:space="preserve"
     style="font-style:normal;font-weight:normal;font-size:46px;line-height:125%;font-family:sans-serif;letter-spacing:0px;word-spacing:0px;fill:#ffffff;fill-opacity:1;stroke:none;stroke-width:1px;stroke-linecap:butt;stroke-linejoin:miter;stroke-opacity:1;"
     x="647.26721"
     y="558.78705"
     id="text4214"
     sodipodi:linespacing="125%"><tspan
       sodipodi:role="line"
       id="tspan4216"
       x="647.26721"
       y="558.78705"
       style="font-size:46px;fill:#ffffff;fill-opacity:1;">B</tspan></text>
</svg>
